<svg width="1067" height="641" viewBox="0 0 1067 641" fill="none" xmlns="http://www.w3.org/2000/svg">
<path d="M64.34 503.96H38.6L0 638.58H16.83L26.53 604.53L30.49 589.68L50.68 518.41H52.26L72.45 589.68L76.22 604.53L86.11 638.58H102.94L64.34 503.96Z" fill="#F6EDE8"/>
<path d="M232.8 585.52C231.41 581.36 228.84 577.8 225.48 575.23C221.92 572.66 216.97 570.28 210.63 568.5V567.31C215.58 566.12 219.34 564.54 222.11 562.36C224.68 560.38 226.66 557.41 227.85 553.65C228.84 549.89 229.43 544.94 229.43 538.6C229.43 529.3 227.85 521.97 224.68 516.82C221.31 511.87 215.97 508.31 208.25 506.13C200.53 503.95 189.44 502.96 175.19 502.96H148.29V517.81H174.94C175.48 517.8 176.01 517.8 176.58 517.8C180.94 517.8 185.69 518 190.83 518.39C196.57 518.79 201.12 519.78 204.29 521.16C207.26 522.55 209.44 524.92 210.82 527.89C212.21 530.86 212.8 535.21 212.8 540.56C212.8 545.91 212.21 550.06 211.22 553.03C210.23 556 208.45 557.98 205.87 559.37C203.3 560.75 199.73 561.55 195.18 561.74H164.89L148.26 561.8V576.28C152.36 576.32 158.01 576.36 164.89 576.4V576.38H190.43C197.75 576.38 203.3 577.17 207.26 578.56C211.02 579.95 213.79 582.52 215.57 585.88C217.15 589.44 217.95 594.39 217.95 600.93C217.95 607.47 216.96 612.61 214.78 615.98C212.6 619.35 208.84 621.72 203.89 623.11C198.74 624.5 191.22 625.09 181.52 625.09C181.37 625.09 181.21 625.1 181.06 625.11H148.28V640.06H176.65C178.41 640.09 180.17 640.13 181.91 640.13C195.96 640.13 206.65 638.94 214.18 636.76C221.7 634.58 227.05 630.82 230.22 625.48C233.39 620.13 234.97 612.61 234.97 602.91C234.97 595.59 234.18 589.84 232.79 585.49L232.8 585.52Z" fill="#F6EDE8"/>
<path d="M300.29 636.79C293.76 634.61 289.2 631.05 286.63 625.7C283.86 620.55 282.47 613.03 282.47 603.33H299.69C300.28 609.27 301.47 613.82 303.45 616.79C305.23 619.76 308.2 621.94 312.36 623.12C316.52 624.31 322.46 624.9 330.37 624.9C337.3 624.9 342.84 624.31 346.8 623.12C350.76 622.13 353.53 620.15 355.31 617.38C357.09 614.61 357.88 610.65 357.88 605.31C357.88 599.97 356.89 595.21 354.71 591.85C352.53 588.48 348.97 585.32 344.02 582.55C339.07 579.98 331.55 577.01 321.85 574.04C311.36 570.67 303.64 567.51 298.29 564.14C292.95 560.97 288.99 557.01 286.81 552.46C284.63 547.91 283.44 541.97 283.44 534.45C283.44 525.94 284.82 519.21 287.4 514.65C289.97 510.1 294.52 506.93 300.86 504.95C307 503.17 315.9 502.18 327.58 502.18C339.26 502.18 347.57 503.17 353.71 504.95C359.85 506.73 364.2 509.9 366.97 514.45C369.54 519 371.13 525.54 371.72 534.05H354.7C354.11 529.5 353.12 525.94 351.33 523.56C349.54 521.18 346.98 519.6 343.41 518.61C339.65 517.62 334.5 517.22 327.97 517.22C320.65 517.22 314.91 517.81 310.95 518.8C306.79 519.99 304.02 521.77 302.44 524.14C300.66 526.71 299.87 530.08 299.87 534.63C299.87 539.18 300.86 542.75 303.04 545.72C305.22 548.69 308.78 551.26 313.73 553.64C318.68 556.21 326.4 559.18 336.49 562.55C346.58 566.11 354.5 569.67 359.85 573.04C365.19 576.41 368.96 580.56 371.13 585.51C373.31 590.46 374.3 597.19 374.3 605.5C374.3 614.61 372.91 621.53 370.34 626.48C367.57 631.43 363.02 634.79 356.48 636.77C349.95 638.95 340.64 639.94 328.37 639.94C316.1 639.94 306.79 638.95 300.26 636.77L300.29 636.79Z" fill="#F6EDE8"/>
<path d="M858.47 634.42C851.54 630.26 846.79 623.33 844.02 613.44C841.05 603.74 839.67 589.69 839.67 571.48C839.67 553.27 841.06 539.02 844.02 529.12C846.79 519.42 851.54 512.3 858.47 508.14C865.2 503.98 874.9 502 887.57 502C896.68 502 904 502.99 909.54 505.17C914.88 507.35 919.04 510.91 922.01 515.86C924.98 520.81 926.76 527.74 927.55 536.65H910.73C909.74 530.91 908.55 526.75 906.77 523.78C904.99 520.81 902.61 518.83 899.84 517.84C897.07 516.85 893.31 516.45 888.56 516.45C880.05 516.45 873.71 518.03 869.16 521.2C864.61 524.37 861.24 529.71 859.46 537.43C857.68 545.15 856.69 556.43 856.69 571.08C856.69 585.73 857.68 597.01 859.46 604.73C861.24 612.45 864.41 617.99 868.96 621.16C873.31 624.53 879.65 626.11 887.96 626.11C895.68 626.11 901.42 624.72 904.78 621.95C908.15 619.18 910.52 614.23 911.91 606.91H928.74C927.95 615.42 925.97 622.15 923 627.1C920.03 632.05 915.68 635.41 909.94 637.39C904.2 639.57 896.88 640.56 887.77 640.56C875.1 640.56 865.4 638.58 858.47 634.42Z" fill="#F6EDE8"/>
<path d="M475.26 565.17H458.24V638.57H475.26V565.17Z" fill="#F6EDE8"/>
<path d="M511.89 503.97H421.82V519.61H511.89V503.97Z" fill="#F6EDE8"/>
<path d="M1029.44 565.17H1012.42V638.57H1029.44V565.17Z" fill="#F6EDE8"/>
<path d="M1066.07 503.97H976V519.61H1066.07V503.97Z" fill="#F6EDE8"/>
<path d="M642.72 599.38C640.54 591.07 637.97 585.13 635.2 581.76C632.43 578.39 628.07 576.22 621.94 575.23V574.04C630.85 573.05 636.98 570.08 640.74 565.33C644.3 560.58 646.08 553.26 646.08 543.16C646.08 533.06 644.69 524.95 641.73 519.21C638.76 513.67 633.62 509.51 626.09 506.94C618.37 504.37 607.29 503.18 592.64 503.18H592.58H563.94V518.44H594.52C595.22 518.44 595.92 518.42 596.6 518.42C600.56 518.42 604.71 518.62 609.07 519.21C614.81 519.8 618.97 520.79 621.94 522.18C624.71 523.57 626.69 525.74 627.88 528.51C628.87 531.48 629.46 535.64 629.46 541.18C629.46 549.89 628.07 556.03 625.3 559.39C622.53 562.76 617.38 564.54 610.06 564.73L563.94 564.93V580.57H597.39C606.69 580.57 613.23 581.96 617.19 584.53C621.15 587.1 623.92 592.05 625.5 599.38L634.21 638.57H653.01L642.72 599.38Z" fill="#F6EDE8"/>
<path d="M757.13 503.97H731.4L692.8 638.58H709.62L719.32 604.53L723.28 589.68L743.47 518.42H745.05L765.24 589.68L769 604.53L778.9 638.58H795.73L757.13 503.97Z" fill="#F6EDE8"/>
<path d="M794.09 0H570.62V297.29H794.09V0Z" fill="#F6EDE8"/>
<path d="M495.46 297.29H272L362.05 0H415.41L495.46 297.29Z" fill="#F6EDE8"/>
</svg>
