<svg width="1067" height="139" viewBox="0 0 1067 139" fill="none" xmlns="http://www.w3.org/2000/svg">
<path d="M64.34 1.95996H38.6L0 136.58H16.83L26.53 102.53L30.49 87.6799L50.68 16.41H52.26L72.45 87.6799L76.22 102.53L86.11 136.58H102.94L64.34 1.95996Z" fill="#252525"/>
<path d="M232.8 83.52C231.41 79.36 228.84 75.8 225.48 73.23C221.92 70.66 216.97 68.2799 210.63 66.4999V65.3099C215.58 64.1199 219.34 62.54 222.11 60.36C224.68 58.38 226.66 55.41 227.85 51.65C228.84 47.89 229.43 42.94 229.43 36.6C229.43 27.3 227.85 19.9699 224.68 14.8199C221.31 9.86995 215.97 6.30994 208.25 4.12994C200.53 1.94994 189.44 0.959961 175.19 0.959961H148.29V15.8099H174.94C175.48 15.7999 176.01 15.8 176.58 15.8C180.94 15.8 185.69 16 190.83 16.39C196.57 16.79 201.12 17.78 204.29 19.16C207.26 20.55 209.44 22.92 210.82 25.89C212.21 28.86 212.8 33.2099 212.8 38.5599C212.8 43.9099 212.21 48.06 211.22 51.03C210.23 54 208.45 55.9799 205.87 57.3699C203.3 58.7499 199.73 59.5499 195.18 59.7399H164.89L148.26 59.8V74.28C152.36 74.32 158.01 74.36 164.89 74.4V74.3799H190.43C197.75 74.3799 203.3 75.1699 207.26 76.5599C211.02 77.9499 213.79 80.5199 215.57 83.8799C217.15 87.4399 217.95 92.3899 217.95 98.9299C217.95 105.47 216.96 110.61 214.78 113.98C212.6 117.35 208.84 119.72 203.89 121.11C198.74 122.5 191.22 123.09 181.52 123.09C181.37 123.09 181.21 123.1 181.06 123.11H148.28V138.06H176.65C178.41 138.09 180.17 138.13 181.91 138.13C195.96 138.13 206.65 136.94 214.18 134.76C221.7 132.58 227.05 128.82 230.22 123.48C233.39 118.13 234.97 110.61 234.97 100.91C234.97 93.59 234.18 87.8399 232.79 83.4899L232.8 83.52Z" fill="#252525"/>
<path d="M300.29 134.79C293.76 132.61 289.2 129.05 286.63 123.7C283.86 118.55 282.47 111.03 282.47 101.33H299.69C300.28 107.27 301.47 111.82 303.45 114.79C305.23 117.76 308.2 119.94 312.36 121.12C316.52 122.31 322.46 122.9 330.37 122.9C337.3 122.9 342.84 122.31 346.8 121.12C350.76 120.13 353.53 118.15 355.31 115.38C357.09 112.61 357.88 108.65 357.88 103.31C357.88 97.97 356.89 93.2101 354.71 89.8501C352.53 86.4801 348.97 83.3201 344.02 80.5501C339.07 77.9801 331.55 75.0101 321.85 72.0401C311.36 68.6701 303.64 65.51 298.29 62.14C292.95 58.97 288.99 55.0101 286.81 50.4601C284.63 45.9101 283.44 39.97 283.44 32.45C283.44 23.94 284.82 17.2101 287.4 12.6501C289.97 8.10005 294.52 4.93004 300.86 2.95004C307 1.17004 315.9 0.180054 327.58 0.180054C339.26 0.180054 347.57 1.17004 353.71 2.95004C359.85 4.73004 364.2 7.90004 366.97 12.45C369.54 17 371.13 23.5401 371.72 32.0501H354.7C354.11 27.5001 353.12 23.94 351.33 21.56C349.54 19.18 346.98 17.6001 343.41 16.6101C339.65 15.6201 334.5 15.2201 327.97 15.2201C320.65 15.2201 314.91 15.8101 310.95 16.8001C306.79 17.9901 304.02 19.77 302.44 22.14C300.66 24.71 299.87 28.08 299.87 32.63C299.87 37.18 300.86 40.7501 303.04 43.7201C305.22 46.6901 308.78 49.26 313.73 51.64C318.68 54.21 326.4 57.1801 336.49 60.5501C346.58 64.1101 354.5 67.6701 359.85 71.0401C365.19 74.4101 368.96 78.56 371.13 83.51C373.31 88.46 374.3 95.19 374.3 103.5C374.3 112.61 372.91 119.53 370.34 124.48C367.57 129.43 363.02 132.79 356.48 134.77C349.95 136.95 340.64 137.94 328.37 137.94C316.1 137.94 306.79 136.95 300.26 134.77L300.29 134.79Z" fill="#252525"/>
<path d="M858.47 132.42C851.54 128.26 846.79 121.33 844.02 111.44C841.05 101.74 839.67 87.69 839.67 69.48C839.67 51.27 841.06 37.02 844.02 27.12C846.79 17.42 851.54 10.3 858.47 6.13998C865.2 1.97998 874.9 0 887.57 0C896.68 0 904 0.989983 909.54 3.16998C914.88 5.34998 919.04 8.91002 922.01 13.86C924.98 18.81 926.76 25.74 927.55 34.65H910.73C909.74 28.91 908.55 24.75 906.77 21.78C904.99 18.81 902.61 16.83 899.84 15.84C897.07 14.85 893.31 14.45 888.56 14.45C880.05 14.45 873.71 16.03 869.16 19.2C864.61 22.37 861.24 27.71 859.46 35.43C857.68 43.15 856.69 54.43 856.69 69.08C856.69 83.73 857.68 95.01 859.46 102.73C861.24 110.45 864.41 115.99 868.96 119.16C873.31 122.53 879.65 124.11 887.96 124.11C895.68 124.11 901.42 122.72 904.78 119.95C908.15 117.18 910.52 112.23 911.91 104.91H928.74C927.95 113.42 925.97 120.15 923 125.1C920.03 130.05 915.68 133.41 909.94 135.39C904.2 137.57 896.88 138.56 887.77 138.56C875.1 138.56 865.4 136.58 858.47 132.42Z" fill="#252525"/>
<path d="M475.26 63.17H458.24V136.57H475.26V63.17Z" fill="#252525"/>
<path d="M511.89 1.96997H421.82V17.61H511.89V1.96997Z" fill="#252525"/>
<path d="M1029.44 63.17H1012.42V136.57H1029.44V63.17Z" fill="#252525"/>
<path d="M1066.07 1.96997H976V17.61H1066.07V1.96997Z" fill="#252525"/>
<path d="M642.72 97.38C640.54 89.07 637.97 83.13 635.2 79.76C632.43 76.39 628.07 74.2201 621.94 73.2301V72.0401C630.85 71.0501 636.98 68.08 640.74 63.33C644.3 58.58 646.08 51.2601 646.08 41.1601C646.08 31.0601 644.69 22.9501 641.73 17.2101C638.76 11.6701 633.62 7.51006 626.09 4.94006C618.37 2.37006 607.29 1.18005 592.64 1.18005H592.58H563.94V16.44H594.52C595.22 16.44 595.92 16.4201 596.6 16.4201C600.56 16.4201 604.71 16.6201 609.07 17.2101C614.81 17.8001 618.97 18.79 621.94 20.18C624.71 21.57 626.69 23.74 627.88 26.51C628.87 29.48 629.46 33.64 629.46 39.18C629.46 47.89 628.07 54.03 625.3 57.39C622.53 60.76 617.38 62.5401 610.06 62.7301L563.94 62.93V78.57H597.39C606.69 78.57 613.23 79.9601 617.19 82.5301C621.15 85.1001 623.92 90.05 625.5 97.38L634.21 136.57H653.01L642.72 97.38Z" fill="#252525"/>
<path d="M757.13 1.96997H731.4L692.8 136.58H709.62L719.32 102.53L723.28 87.6799L743.47 16.42H745.05L765.24 87.6799L769 102.53L778.9 136.58H795.73L757.13 1.96997Z" fill="#252525"/>
</svg>
