<svg width="1505" height="139" viewBox="0 0 1505 139" fill="none" xmlns="http://www.w3.org/2000/svg">
<path d="M502.34 1.95996H476.6L438 136.58H454.83L464.53 102.53L468.49 87.6799L488.68 16.41H490.26L510.45 87.6799L514.22 102.53L524.11 136.58H540.94L502.34 1.95996Z" fill="#F6EDE8"/>
<path d="M670.8 83.52C669.41 79.36 666.84 75.8 663.48 73.23C659.92 70.66 654.97 68.2799 648.63 66.4999V65.3099C653.58 64.1199 657.34 62.54 660.11 60.36C662.68 58.38 664.66 55.41 665.85 51.65C666.84 47.89 667.43 42.94 667.43 36.6C667.43 27.3 665.85 19.9699 662.68 14.8199C659.31 9.86995 653.97 6.30994 646.25 4.12994C638.53 1.94994 627.44 0.959961 613.19 0.959961H586.29V15.8099H612.94C613.48 15.7999 614.01 15.8 614.58 15.8C618.94 15.8 623.69 16 628.83 16.39C634.57 16.79 639.12 17.78 642.29 19.16C645.26 20.55 647.44 22.92 648.82 25.89C650.21 28.86 650.8 33.2099 650.8 38.5599C650.8 43.9099 650.21 48.06 649.22 51.03C648.23 54 646.45 55.9799 643.87 57.3699C641.3 58.7499 637.73 59.5499 633.18 59.7399H602.89L586.26 59.8V74.28C590.36 74.32 596.01 74.36 602.89 74.4V74.3799H628.43C635.75 74.3799 641.3 75.1699 645.26 76.5599C649.02 77.9499 651.79 80.5199 653.57 83.8799C655.15 87.4399 655.95 92.3899 655.95 98.9299C655.95 105.47 654.96 110.61 652.78 113.98C650.6 117.35 646.84 119.72 641.89 121.11C636.74 122.5 629.22 123.09 619.52 123.09C619.37 123.09 619.21 123.1 619.06 123.11H586.28V138.06H614.65C616.41 138.09 618.17 138.13 619.91 138.13C633.96 138.13 644.65 136.94 652.18 134.76C659.7 132.58 665.05 128.82 668.22 123.48C671.39 118.13 672.97 110.61 672.97 100.91C672.97 93.59 672.18 87.8399 670.79 83.4899L670.8 83.52Z" fill="#F6EDE8"/>
<path d="M738.29 134.79C731.76 132.61 727.2 129.05 724.63 123.7C721.86 118.55 720.47 111.03 720.47 101.33H737.69C738.28 107.27 739.47 111.82 741.45 114.79C743.23 117.76 746.2 119.94 750.36 121.12C754.52 122.31 760.46 122.9 768.37 122.9C775.3 122.9 780.84 122.31 784.8 121.12C788.76 120.13 791.53 118.15 793.31 115.38C795.09 112.61 795.88 108.65 795.88 103.31C795.88 97.97 794.89 93.2101 792.71 89.8501C790.53 86.4801 786.97 83.3201 782.02 80.5501C777.07 77.9801 769.55 75.0101 759.85 72.0401C749.36 68.6701 741.64 65.51 736.29 62.14C730.95 58.97 726.99 55.0101 724.81 50.4601C722.63 45.9101 721.44 39.97 721.44 32.45C721.44 23.94 722.82 17.2101 725.4 12.6501C727.97 8.10005 732.52 4.93004 738.86 2.95004C745 1.17004 753.9 0.180054 765.58 0.180054C777.26 0.180054 785.57 1.17004 791.71 2.95004C797.85 4.73004 802.2 7.90004 804.97 12.45C807.54 17 809.13 23.5401 809.72 32.0501H792.7C792.11 27.5001 791.12 23.94 789.33 21.56C787.54 19.18 784.98 17.6001 781.41 16.6101C777.65 15.6201 772.5 15.2201 765.97 15.2201C758.65 15.2201 752.91 15.8101 748.95 16.8001C744.79 17.9901 742.02 19.77 740.44 22.14C738.66 24.71 737.87 28.08 737.87 32.63C737.87 37.18 738.86 40.7501 741.04 43.7201C743.22 46.6901 746.78 49.26 751.73 51.64C756.68 54.21 764.4 57.1801 774.49 60.5501C784.58 64.1101 792.5 67.6701 797.85 71.0401C803.19 74.4101 806.96 78.56 809.13 83.51C811.31 88.46 812.3 95.19 812.3 103.5C812.3 112.61 810.91 119.53 808.34 124.48C805.57 129.43 801.02 132.79 794.48 134.77C787.95 136.95 778.64 137.94 766.37 137.94C754.1 137.94 744.79 136.95 738.26 134.77L738.29 134.79Z" fill="#F6EDE8"/>
<path d="M1296.47 132.42C1289.54 128.26 1284.79 121.33 1282.02 111.44C1279.05 101.74 1277.67 87.69 1277.67 69.48C1277.67 51.27 1279.06 37.02 1282.02 27.12C1284.79 17.42 1289.54 10.3 1296.47 6.13998C1303.2 1.97998 1312.9 0 1325.57 0C1334.68 0 1342 0.989983 1347.54 3.16998C1352.88 5.34998 1357.04 8.91002 1360.01 13.86C1362.98 18.81 1364.76 25.74 1365.55 34.65H1348.73C1347.74 28.91 1346.55 24.75 1344.77 21.78C1342.99 18.81 1340.61 16.83 1337.84 15.84C1335.07 14.85 1331.31 14.45 1326.56 14.45C1318.05 14.45 1311.71 16.03 1307.16 19.2C1302.61 22.37 1299.24 27.71 1297.46 35.43C1295.68 43.15 1294.69 54.43 1294.69 69.08C1294.69 83.73 1295.68 95.01 1297.46 102.73C1299.24 110.45 1302.41 115.99 1306.96 119.16C1311.31 122.53 1317.65 124.11 1325.96 124.11C1333.68 124.11 1339.42 122.72 1342.78 119.95C1346.15 117.18 1348.52 112.23 1349.91 104.91H1366.74C1365.95 113.42 1363.97 120.15 1361 125.1C1358.03 130.05 1353.68 133.41 1347.94 135.39C1342.2 137.57 1334.88 138.56 1325.77 138.56C1313.1 138.56 1303.4 136.58 1296.47 132.42Z" fill="#F6EDE8"/>
<path d="M913.26 63.17H896.24V136.57H913.26V63.17Z" fill="#F6EDE8"/>
<path d="M949.89 1.96997H859.82V17.61H949.89V1.96997Z" fill="#F6EDE8"/>
<path d="M1467.44 63.17H1450.42V136.57H1467.44V63.17Z" fill="#F6EDE8"/>
<path d="M1504.07 1.96997H1414V17.61H1504.07V1.96997Z" fill="#F6EDE8"/>
<path d="M1080.72 97.38C1078.54 89.07 1075.97 83.13 1073.2 79.76C1070.43 76.39 1066.07 74.2201 1059.94 73.2301V72.0401C1068.85 71.0501 1074.98 68.08 1078.74 63.33C1082.3 58.58 1084.08 51.2601 1084.08 41.1601C1084.08 31.0601 1082.69 22.9501 1079.73 17.2101C1076.76 11.6701 1071.62 7.51006 1064.09 4.94006C1056.37 2.37006 1045.29 1.18005 1030.64 1.18005H1030.58H1001.94V16.44H1032.52C1033.22 16.44 1033.92 16.4201 1034.6 16.4201C1038.56 16.4201 1042.71 16.6201 1047.07 17.2101C1052.81 17.8001 1056.97 18.79 1059.94 20.18C1062.71 21.57 1064.69 23.74 1065.88 26.51C1066.87 29.48 1067.46 33.64 1067.46 39.18C1067.46 47.89 1066.07 54.03 1063.3 57.39C1060.53 60.76 1055.38 62.5401 1048.06 62.7301L1001.94 62.93V78.57H1035.39C1044.69 78.57 1051.23 79.9601 1055.19 82.5301C1059.15 85.1001 1061.92 90.05 1063.5 97.38L1072.21 136.57H1091.01L1080.72 97.38Z" fill="#F6EDE8"/>
<path d="M1195.13 1.96997H1169.4L1130.8 136.58H1147.62L1157.32 102.53L1161.28 87.6799L1181.47 16.42H1183.05L1203.24 87.6799L1207 102.53L1216.9 136.58H1233.73L1195.13 1.96997Z" fill="#F6EDE8"/>
<path d="M236.335 1.98562H135.176V136.56H236.335V1.98562Z" fill="#F6EDE8"/>
<path d="M101.154 136.56H0L40.763 1.9856H64.9175L101.154 136.56Z" fill="#F6EDE8"/>
</svg>
