<svg width="400" height="400" viewBox="0 0 230 255" fill="none" x="0" y='0' xmlns="http://www.w3.org/2000/svg">
    <style type="text/css">
	.st0{display:none;}
	.st1{display:inline;}
	.st2{fill:#6135F1;}
	.st3{fill:#E318B3;}
	.st4{fill:#E6E6E6;}
	.st5{fill:#FBB03B;}
	.st6{fill:#FF627D;}
	.st7{fill:#54A7F6;}
	.st8{fill:#6C71FA;}
</style>
    <g>
	<g class="st0">
		<path class="st1" d="M-140.84,333.27h-11.54l-5.27-9.25h-27.84l-5.27,9.25H-201l24.96-42.06h9.84L-140.84,333.27z M-161.83,316.36
			l-9.84-17.5l-9.45,17.5H-161.83z"/>
        <path class="st1" d="M-62.5,325.01c0,5.5-4.34,8.25-13.02,8.25h-35v-42.06h37.78c6.63,0,9.94,2.72,9.94,8.15v5.07
			c0,3.98-2.38,6.36-7.16,7.16c4.97,0.79,7.46,3.48,7.46,8.05V325.01z M-72.84,305.03v-3.98c0-1.99-1.53-2.98-4.57-2.98h-22.97v9.94
			h22.97C-74.36,308.01-72.84,307.02-72.84,305.03z M-72.44,321.93v-3.18c0-1.59-0.46-2.65-1.39-3.18c-0.66-0.4-1.86-0.6-3.58-0.6
			h-22.97v10.74h22.97c1.72,0,2.91-0.2,3.58-0.6C-72.9,324.58-72.44,323.52-72.44,321.93z"/>
        <path class="st1" d="M21.03,323.32c0,3.98-0.8,6.63-2.39,7.95c-1.59,1.33-4.44,1.99-8.55,1.99h-27.34c-4.51,0-7.48-0.74-8.9-2.24
			c-1.43-1.49-2.14-4.46-2.14-8.9l9.15-1.69v4.97h30.92v-9.64h-27.24c-4.11,0-6.93-0.63-8.45-1.89c-1.72-1.39-2.59-4.08-2.59-8.05
			v-4.67c0-3.98,0.86-6.66,2.59-8.05c1.52-1.26,4.34-1.89,8.45-1.89H9.49c4.24,0,7.14,0.66,8.7,1.99c1.56,1.33,2.34,4.04,2.34,8.15
			l-8.85,1.89v-4.47h-28.93v8.85h27.34c4.11,0,6.96,0.65,8.55,1.94c1.59,1.29,2.39,3.96,2.39,8.01V323.32z"/>
        <path class="st1" d="M104.05,298.76H83.66v34.5H73.42v-34.5H53.14v-7.56h50.91V298.76z"/>
        <path class="st1" d="M189.26,333.27h-14.72l-17.6-15.91h-9.64v15.91h-10.14v-42.06h37.88c6.56,0,9.84,2.72,9.84,8.15v9.94
			c0,4.11-1.76,6.63-5.27,7.56c-1.19,0.33-4.64,0.5-10.34,0.5L189.26,333.27z M175.34,306.72v-4.87c0-2.25-1.56-3.38-4.67-3.38
			H147.3v11.63h23.37C173.78,310.1,175.34,308.97,175.34,306.72z"/>
        <path class="st1" d="M271.79,333.27h-11.54l-5.27-9.25h-27.84l-5.27,9.25h-10.24l24.96-42.06h9.84L271.79,333.27z M250.81,316.36
			l-9.84-17.5l-9.45,17.5H250.81z"/>
        <path class="st1" d="M349.34,323.32c0,3.98-0.81,6.63-2.44,7.95c-1.62,1.33-4.49,1.99-8.6,1.99h-26.25
			c-4.11,0-6.96-0.66-8.55-1.99c-1.59-1.32-2.39-3.98-2.39-7.95v-22.17c0-3.98,0.8-6.63,2.39-7.95c1.59-1.33,4.44-1.99,8.55-1.99
			h26.25c5.24,0,8.48,1.09,9.74,3.28c0.86,1.46,1.29,5.04,1.29,10.74L339,306.72v-7.75h-27.64v26.25H339v-8.95l10.34,2.09V323.32z"
        />
        <path class="st1" d="M431.47,298.76h-20.38v34.5h-10.24v-34.5h-20.28v-7.56h50.91V298.76z"/>
	</g>
        <g>
		<polygon class="st2" points="52.15,161.79 178.32,161.79 148.16,118.79 115.23,137.8 82.31,118.79 		"/>
            <polygon class="st3" points="142.4,110.58 115.23,71.84 88.07,110.58 115.23,126.26 		"/>
            <polygon class="st4" points="156.85,113.77 189,159.62 229.58,183.05 229.58,71.79 		"/>
            <polygon class="st4" points="73.62,113.78 0.89,71.79 0.89,183.05 41.47,159.62 		"/>
            <polygon class="st5" points="115.23,54.43 115.23,0 5.89,63.13 79.38,105.56 		"/>
            <polygon class="st6" points="151.09,105.56 224.58,63.13 115.23,0 115.23,54.43 		"/>
            <polygon class="st7" points="115.23,170.44 115.23,254.83 224.58,191.7 187.75,170.44 		"/>
            <polygon class="st8" points="42.71,170.44 5.89,191.7 115.23,254.83 115.23,170.44 		"/>
	</g>
</g>
</svg>
