<svg width="177" height="23" viewBox="0 0 177 23" fill="none" xmlns="http://www.w3.org/2000/svg">
<path d="M8.1 0H5.15L0 5.15V8.1L1.07 9.16L9.16 1.07L8.1 0Z" fill="#E6E7E8"/>
<path d="M22.31 14.21V17.16L17.16 22.31H14.21L13.15 21.24L21.24 13.15L22.31 14.21Z" fill="#E6E7E8"/>
<path d="M0 14.21V17.16L5.15 22.31H8.1L9.16 21.24L1.07 13.15L0 14.21Z" fill="#E6E7E8"/>
<path d="M14.21 0H17.16L22.31 5.15V8.1L21.24 9.16L13.15 1.07L14.21 0Z" fill="#E6E7E8"/>
<path d="M16.82 9.88999L12.42 5.48999H9.9L5.5 9.89999V12.41L9.9 16.81L12.42 16.82L16.82 12.42V9.88999Z" fill="#E6E7E8"/>
<path d="M63.72 3.05004H54.37V19.73H63.72L66.64 16.81V12.88L65.16 11.39L66.64 9.90004V5.97004L63.72 3.04004V3.05004ZM64.06 16.08L62.75 17.39H56.7V12.62H63.06L64.13 13.69V15.89C64.13 15.96 64.1 16.03 64.05 16.08H64.06ZM64.14 9.09004L63.07 10.16H56.71V5.39004H62.76L64.15 6.78004V9.09004H64.14Z" fill="#E6E7E8"/>
<path d="M148.27 6.68002L149.58 5.37002H154.3L155.69 6.76002L157.34 5.10002L155.28 3.03002H155.25L148.62 3.02002H148.59L145.68 5.95002V16.81L148.59 19.73H148.61H155.24H155.26L157.33 17.65L155.68 15.99L154.29 17.38H149.57L148.18 15.99V6.89002C148.18 6.81002 148.21 6.74002 148.26 6.69002L148.27 6.68002Z" fill="#E6E7E8"/>
<path d="M90.75 5.38004H95.06V19.75H97.4V5.38004H101.99V3.04004H90.46V5.10004C90.46 5.26004 90.59 5.38004 90.74 5.38004H90.75Z" fill="#E6E7E8"/>
<path d="M82.11 5.38003L83.5 6.77003L85.15 5.11003L83.08 3.03003H76.51L73.59 5.96003V9.36003L82.59 14.56V16.7L81.9 17.4H76.36L74.97 16.01L73.32 17.67L75.4 19.75H82.87L84.94 17.67V13.21L76.11 8.10003V6.77003L77.42 5.45003C77.42 5.45003 77.53 5.37003 77.6 5.37003H82.12L82.11 5.38003Z" fill="#E6E7E8"/>
<path d="M44.31 3.03003H38.22L33.75 19.74H36.17L37.23 15.78H45.3L46.36 19.74H48.78L44.31 3.03003ZM44.67 13.44H37.85L40 5.40003H42.51L44.66 13.44H44.67Z" fill="#E6E7E8"/>
<path d="M116.07 12.55H117.09L117.39 12.24L120.01 9.62005V5.98005L117.09 3.05005H107.73V19.74H110.07V12.54H113.37L117.52 19.74H120.22L116.07 12.54V12.55ZM110.35 10.21C110.19 10.21 110.07 10.08 110.07 9.92005V5.40005H116.12L117.51 6.79005V8.81005L116.12 10.2H110.36L110.35 10.21Z" fill="#E6E7E8"/>
<path d="M135.96 3.03003H129.87L125.4 19.74H127.82L128.88 15.78H136.95L138.01 19.74H140.43L135.96 3.03003ZM136.32 13.44H129.5L131.65 5.40003H134.16L136.31 13.44H136.32Z" fill="#E6E7E8"/>
<path d="M174.38 3.03003H165.54H163.14H162.86V3.32003V5.38003H167.45V19.75H169.79V5.38003H174.38V3.03003Z" fill="#E6E7E8"/>
</svg>
