<svg width="142" height="17" viewBox="0 0 142 17" fill="none" xmlns="http://www.w3.org/2000/svg">
<path d="M30.72 0.0500391H21.37V16.73H30.72L33.64 13.81V9.88004L32.16 8.39004L33.64 6.90004V2.97004L30.72 0.0400391V0.0500391ZM31.06 13.08L29.75 14.39H23.7V9.62004H30.06L31.13 10.69V12.89C31.13 12.96 31.1 13.03 31.05 13.08H31.06ZM31.14 6.09004L30.07 7.16004H23.71V2.39004H29.76L31.15 3.78004V6.09004H31.14Z" fill="#E6E7E8"/>
<path d="M115.27 3.68002L116.58 2.37002H121.3L122.69 3.76002L124.34 2.10002L122.28 0.0300195H122.25L115.62 0.0200195H115.59L112.68 2.95002V13.81L115.59 16.73H115.61H122.24H122.26L124.33 14.65L122.68 12.99L121.29 14.38H116.57L115.18 12.99V3.89002C115.18 3.81002 115.21 3.74002 115.26 3.69002L115.27 3.68002Z" fill="#E6E7E8"/>
<path d="M57.75 2.38004H62.06V16.75H64.4V2.38004H68.99V0.0400391H57.46V2.10004C57.46 2.26004 57.59 2.38004 57.74 2.38004H57.75Z" fill="#E6E7E8"/>
<path d="M49.11 2.38003L50.5 3.77003L52.15 2.11003L50.08 0.0300293H43.51L40.59 2.96003V6.36003L49.59 11.56V13.7L48.9 14.4H43.36L41.97 13.01L40.32 14.67L42.4 16.75H49.87L51.94 14.67V10.21L43.11 5.10003V3.77003L44.42 2.45003C44.42 2.45003 44.53 2.37003 44.6 2.37003H49.12L49.11 2.38003Z" fill="#E6E7E8"/>
<path d="M11.31 0.0300293H5.22L0.75 16.74H3.17L4.23 12.78H12.3L13.36 16.74H15.78L11.31 0.0300293ZM11.67 10.44H4.85L7 2.40003H9.51L11.66 10.44H11.67Z" fill="#E6E7E8"/>
<path d="M83.07 9.55005H84.09L84.39 9.24005L87.01 6.62005V2.98005L84.09 0.0500488H74.73V16.74H77.07V9.54005H80.37L84.52 16.74H87.22L83.07 9.54005V9.55005ZM77.35 7.21005C77.19 7.21005 77.07 7.08005 77.07 6.92005V2.40005H83.12L84.51 3.79005V5.81005L83.12 7.20005H77.36L77.35 7.21005Z" fill="#E6E7E8"/>
<path d="M102.96 0.0300293H96.87L92.4 16.74H94.82L95.88 12.78H103.95L105.01 16.74H107.43L102.96 0.0300293ZM103.32 10.44H96.5L98.65 2.40003H101.16L103.31 10.44H103.32Z" fill="#E6E7E8"/>
<path d="M141.38 0.0300293H132.54H130.14H129.86V0.320029V2.38003H134.45V16.75H136.79V2.38003H141.38V0.0300293Z" fill="#E6E7E8"/>
</svg>
